<svg width="800" height="520" viewBox="0 0 800 520" fill="none" xmlns="http://www.w3.org/2000/svg">
  <rect width="800" height="520" rx="36" fill="#ECEAE4"/>
  <ellipse cx="520" cy="428" rx="204" ry="24" fill="#D4D0C5"/>
  <ellipse cx="160" cy="446" rx="120" ry="16" fill="#D4D0C5"/>
  <path d="M470 132C510 84 585 70 639 112C603 134 563 158 531 190C506 216 488 248 479 286C463 260 452 229 452 198C452 173 459 151 470 132Z" fill="#3A7B2F"/>
  <path d="M507 118C557 92 626 98 666 144C632 156 592 178 556 208C525 233 500 266 486 304C470 272 462 239 462 205C462 168 477 139 507 118Z" fill="#4B9838"/>
  <path d="M555 164C596 130 656 126 700 160C669 174 636 194 608 220C581 245 560 274 547 306C529 281 520 252 520 220C520 198 531 178 555 164Z" fill="#2D6A27"/>
  <path d="M573 194C606 175 650 180 680 212C654 219 624 235 599 255C576 273 559 297 549 322C535 300 528 277 528 252C528 228 540 208 573 194Z" fill="#5AA143"/>
  <path d="M358 282C389 242 447 224 498 246C469 270 442 300 421 334C406 359 396 384 392 408C367 386 353 356 349 324C347 308 350 294 358 282Z" fill="#5C9E4C"/>
  <path d="M151 286C183 254 236 248 276 274C248 286 220 304 196 328C176 348 160 370 150 392C132 374 122 352 120 330C118 313 127 298 151 286Z" fill="#7CB26C"/>
  <path d="M214 308C242 290 282 292 310 314C287 322 264 336 245 354C228 370 216 387 209 404C192 391 182 376 179 359C176 340 186 322 214 308Z" fill="#628A57"/>
  <path d="M92 332C117 308 156 304 183 327C163 336 145 351 130 367C117 381 108 395 103 408C90 397 82 383 80 369C78 355 82 343 92 332Z" fill="#8EB08E"/>
  <path d="M478 330H598L618 458H458L478 330Z" fill="#C49B68"/>
  <path d="M458 458C474 434 502 420 538 420C574 420 602 434 618 458H458Z" fill="#A67F52"/>
  <path d="M491 330L498 458" stroke="#D7B081" stroke-width="6"/>
  <path d="M519 330L523 458" stroke="#D7B081" stroke-width="6"/>
  <path d="M547 330L551 458" stroke="#D7B081" stroke-width="6"/>
  <path d="M575 330L582 458" stroke="#D7B081" stroke-width="6"/>
  <path d="M467 362H607" stroke="#D7B081" stroke-width="6"/>
  <path d="M462 390H614" stroke="#D7B081" stroke-width="6"/>
  <path d="M459 420H617" stroke="#D7B081" stroke-width="6"/>
  <rect x="696" y="356" width="46" height="74" rx="10" fill="#49783B"/>
  <path d="M720 314C743 320 754 339 749 362C734 356 716 355 701 362C696 344 703 322 720 314Z" fill="#69A84F"/>
  <path d="M684 344C700 334 721 336 735 348C720 353 707 364 698 378C688 370 682 358 684 344Z" fill="#4C8D3D"/>
</svg>
